<?xml version="1.0" encoding="UTF-8" standalone="no"?>
<!-- Created with Inkscape (http://www.inkscape.org/) -->

<svg
   xmlns:dc="http://purl.org/dc/elements/1.1/"
   xmlns:cc="http://creativecommons.org/ns#"
   xmlns:rdf="http://www.w3.org/1999/02/22-rdf-syntax-ns#"
   xmlns:svg="http://www.w3.org/2000/svg"
   xmlns="http://www.w3.org/2000/svg"
   xmlns:sodipodi="http://sodipodi.sourceforge.net/DTD/sodipodi-0.dtd"
   xmlns:inkscape="http://www.inkscape.org/namespaces/inkscape"
   width="700"
   height="700"
   viewBox="0 0 185.20832 185.20834"
   version="1.1"
   id="svg8"
   inkscape:version="0.92.3 (2405546, 2018-03-11)"
   sodipodi:docname="jankio.svg"
   inkscape:export-filename="C:\Users\janks\Desktop\brandonjank.github.io\assets\jankio-700x700.png"
   inkscape:export-xdpi="96"
   inkscape:export-ydpi="96">
  <defs
     id="defs2" />
  <sodipodi:namedview
     id="base"
     pagecolor="#ffffff"
     bordercolor="#666666"
     borderopacity="1.0"
     inkscape:pageopacity="0.0"
     inkscape:pageshadow="2"
     inkscape:zoom="1"
     inkscape:cx="319.38307"
     inkscape:cy="336"
     inkscape:document-units="mm"
     inkscape:current-layer="layer1"
     showgrid="true"
     showguides="false"
     inkscape:window-width="1921"
     inkscape:window-height="1185"
     inkscape:window-x="2787"
     inkscape:window-y="84"
     inkscape:window-maximized="0"
     inkscape:measure-start="0,0"
     inkscape:measure-end="0,0"
     units="px"
     inkscape:pagecheckerboard="false">
    <inkscape:grid
       type="xygrid"
       id="grid3717" />
  </sodipodi:namedview>
  <metadata
     id="metadata5">
    <rdf:RDF>
      <cc:Work
         rdf:about="">
        <dc:format>image/svg+xml</dc:format>
        <dc:type
           rdf:resource="http://purl.org/dc/dcmitype/StillImage" />
        <dc:title></dc:title>
      </cc:Work>
    </rdf:RDF>
  </metadata>
  <g
     inkscape:label="Layer 1"
     inkscape:groupmode="layer"
     id="layer1"
     transform="translate(0,-111.79163)">
    <path
       id="path38"
       style="font-style:normal;font-variant:normal;font-weight:normal;font-stretch:normal;font-size:40.56944275px;line-height:1.25;font-family:JasonSharpie;-inkscape-font-specification:JasonSharpie;letter-spacing:0px;word-spacing:0px;fill:#000000;fill-opacity:1;stroke:none;stroke-width:0.26458332"
       d="m 169.85496,187.06885 q 0,0.37637 3.01102,0.8716 0,-0.2179 0.2179,-0.2179 0.0198,0.23771 4.31843,3.44682 2.71387,3.58548 3.88262,5.84374 l -0.2179,0.416 q 0.35656,0 1.08951,1.30741 0,0.2179 -0.21791,0.2179 0.87161,2.19884 0.87161,3.88263 v 0.4358 h -0.4358 v 0.2179 h 0.4358 v 0.8518 h -0.4358 l 0.2179,0.43581 q -0.29714,1.2876 -0.87161,1.2876 v 0.2179 h 0.43581 v 0.43581 q -0.43581,0 -0.87161,1.2876 -2.59502,2.89216 -4.53633,3.46663 0,0.29714 -0.6339,0.6339 h -0.65371 q -3.11006,2.25826 -11.42996,3.46663 0,-0.35657 -3.90243,-1.08952 0,-0.25752 -1.72341,-1.5055 -1.0697,-2.71388 -1.0697,-3.22892 0.2179,0 0.2179,-0.2179 h -0.43581 v -0.2179 l 0.21791,-0.43581 q -0.43581,0 -0.43581,-0.6537 l 0.2179,-0.43581 -0.2179,-0.41599 0.2179,-0.87161 q -0.2179,-0.416 -0.2179,-0.65371 0.33676,-0.25752 1.50551,-4.31843 0.47542,-0.0198 1.08951,-2.3573 0.57447,0 0.8518,-1.94131 0.59428,0 1.30741,-1.74322 2.3375,-2.31769 3.01102,-4.51652 h 0.6537 l -0.2179,-0.43581 q 0,-0.37637 2.15921,-2.15921 0,-0.95085 2.37712,-1.30741 z m 0.8518,8.63685 q 0,0.65371 -0.8518,1.08951 -0.37637,0.65371 -2.81292,1.50551 0,0.71313 -1.72341,3.03082 0,0.25752 -0.87161,1.50551 -0.69332,1.94131 -1.0697,1.94131 l 0.2179,0.4358 v 0.21791 h -0.4358 l 0.2179,0.41599 v 0.2179 h -0.4358 q 0,0.2179 0.2179,0.2179 0,0.416 -0.4358,1.50551 2.31768,1.08951 3.03082,1.08951 1.82245,0 8.20105,-2.59502 0,-0.53485 1.94131,-1.2876 0,-0.33676 1.0697,-2.15921 v -0.21791 q 0,-0.2179 -0.2179,-0.2179 l 0.2179,-0.4358 -0.2179,-0.43581 h 0.2179 q -0.0792,-1.0697 -0.6339,-1.0697 v -0.2179 l 0.21791,-0.43581 q -0.87161,0 -0.87161,-0.63389 0.2179,-0.43581 0.2179,-0.65371 -1.66398,-2.23845 -3.03082,-2.81292 h -0.21791 q -0.47542,0 -0.8518,0.2179 -0.37637,-0.2179 -0.87161,-0.2179 z m -20.85919,-10.36026 q 0.73294,0 1.94131,1.72341 h 0.2179 l -0.2179,0.4358 v 0.2179 h 0.4358 v 0.2179 l -0.2179,1.06971 h 0.416 q -0.1981,1.14894 -0.1981,1.30741 l 0.1981,0.43581 -0.1981,0.41599 q 0.1981,0.39619 0.1981,0.87161 0,0.2179 -0.1981,0.2179 0,0.2179 0.1981,0.2179 -0.25752,2.79312 -0.6339,2.79312 l 0.2179,0.4358 v 0.2179 q 0,0.2179 -0.2179,0.2179 0,0.21791 0.2179,0.21791 -0.15847,1.5055 -0.4358,1.5055 l 0.2179,0.43581 v 0.87161 l -0.2179,0.41599 h 0.2179 q -0.43581,0.89142 -0.43581,1.30742 h 0.21791 q -0.49524,3.44681 -0.65371,3.44681 0,0.21791 0.2179,0.21791 -0.2179,4.53633 -0.6537,4.53633 l 0.2179,0.4358 -0.2179,0.416 0.2179,1.08951 h -0.2179 q 0.4358,0.69332 0.4358,1.0697 -0.13867,1.74322 -0.4358,1.74322 0.2179,0.41599 0.2179,0.63389 0,1.52532 -0.416,1.52532 l 0.1981,0.416 v 0.8716 q 0,0.21791 -0.1981,0.21791 l 0.1981,0.4358 q 0,0.2179 -0.1981,0.2179 l 0.1981,0.416 q 0,0.2179 -0.1981,0.2179 l 0.1981,0.43581 v 0.2179 q 0,0.2179 -0.1981,0.2179 l 0.1981,0.43581 v 0.41599 q -0.416,0.51504 -0.8518,3.46663 -0.65371,0 -1.50551,0.4358 -1.96112,0 -1.96112,-1.30741 -0.6339,-1.0697 -0.6339,-1.50551 h 0.2179 q -0.4358,-1.32722 -0.4358,-1.72341 h 0.2179 q -0.4358,-0.79237 -0.4358,-1.72341 h 0.2179 l -0.2179,-0.4358 v -0.2179 h 0.4358 l -0.2179,-0.43581 q 0,-0.2179 0.2179,-0.2179 l -0.4358,-1.2876 0.2179,-0.43581 q 0,-0.2179 -0.2179,-0.2179 l 0.2179,-1.0697 -0.2179,-1.52532 q 0.53485,-0.41599 0.87161,-0.41599 v -0.21791 h -0.65371 v -0.4358 h 0.4358 l -0.4358,-0.65371 q 0,-0.2179 0.2179,-0.2179 l -0.2179,-1.0697 v -1.30742 h 0.4358 v -0.2179 h -0.4358 v -0.41599 h 0.4358 l -0.2179,-1.08952 h 0.2179 l -0.2179,-0.4358 q 0,-0.19809 0.2179,-0.19809 0,-0.2179 -0.2179,-0.2179 0.43581,-6.43803 0.43581,-7.56716 -0.21791,0 -0.21791,-0.2179 h 0.21791 q 0,-0.2179 -0.21791,-0.2179 l 0.21791,-0.8518 v -1.50551 h 0.19809 q -0.416,-0.89142 -0.416,-1.30741 h 0.21791 l -0.21791,-0.43581 q 0.21791,-0.37637 0.21791,-0.8518 -0.65371,0 -0.65371,-0.4358 0.51504,-0.43581 0.8518,-0.43581 v -0.2179 q -0.8518,0 -0.8518,-0.41599 h 0.4358 l -0.2179,-0.43581 v -0.6537 h 0.43581 l -0.21791,-0.43581 v -0.8518 q 0.416,0 0.416,-0.2179 -0.19809,-0.416 -0.19809,-0.65371 0.23771,0 1.7234,-1.72341 0.45562,0 2.15922,-0.6537 z m -16.89733,26.98026 h 0.4358 v 0.65371 h -0.4358 v 0.2179 h 0.4358 q 0,-0.2179 0.19809,-0.2179 0,0.49523 1.08952,0.6537 0,0.23772 0.6537,1.06971 h -0.6537 v 0.4358 h 0.6537 l 0.6339,-0.4358 h 0.2179 l 0.43581,0.2179 -0.21791,1.08951 v 0.19809 q 0.65371,0 0.65371,0.43581 l -0.2179,1.30741 q 0.2179,0.416 0.2179,0.6339 l -0.4358,0.2179 -0.43581,-0.2179 h -0.2179 v 0.2179 h 0.4358 v 0.87161 l -0.8716,0.2179 v 0.21791 h 0.4358 v 0.41599 h -0.2179 l -0.416,-0.2179 h -0.2179 v 0.2179 h 0.416 q -0.416,0.53485 -0.416,0.87161 h -1.30741 v 0.2179 h 0.6537 v 0.43581 h -1.5055 v -0.21791 l 0.2179,-0.4358 -0.43581,-0.2179 q -0.41599,0.2179 -0.6537,0.2179 l 0.2179,0.4358 -0.4358,0.21791 h -1.28761 q -0.71313,-0.65371 -1.08951,-0.65371 v -0.65371 h 0.4358 v -0.2179 h -0.8518 v -0.2179 q 0,-0.19809 0.1981,-0.19809 0,-0.65371 -0.6339,-0.65371 v -0.43581 l 0.2179,-0.4358 H 128.196 v -0.2179 l 0.43581,-0.6339 q -0.2179,-0.416 -0.2179,-0.65371 h 0.2179 l -0.2179,-0.4358 v -0.43581 l 0.2179,-0.41599 H 128.196 v -0.87161 q 0.43581,-0.93104 2.37712,-1.94131 l 0.65371,0.4358 q 0.59428,-0.0792 1.0697,-0.87161 h 0.65371 z m -5.44756,-29.57528 q 0.51504,0 2.59502,1.08951 v 0.4358 l -0.2179,0.43581 q 1.2876,0.11885 1.2876,0.6339 h -0.2179 q 0,0.2179 0.2179,0.2179 0,0.23771 -0.2179,0.65371 l 0.2179,1.0697 q -0.11886,1.94131 -0.416,1.94131 -0.29713,0 -1.52531,1.52532 -1.34703,0.25752 -4.73442,3.44681 -0.93104,1.46589 -3.46663,3.03083 -0.0198,0.71313 -2.37712,1.94131 -1.14894,1.74322 -2.57521,2.15921 -2.15921,1.84227 -2.15921,2.15921 h -1.30741 q 0,0.65371 -1.94131,1.94132 -1.10932,1.36684 -2.15922,1.7234 0,0.33676 -1.2876,1.06971 -0.97066,0.69332 -3.24873,3.24872 -0.41599,0 -1.0697,1.0697 -1.01027,0 -1.94131,2.37712 -0.23771,0 -1.089511,1.2876 -0.217903,0 -0.217903,0.21791 v 0.6537 h -0.198093 v 0.87161 q 1.763027,1.28761 4.516517,1.28761 v 0.2179 l 0.43581,-0.2179 0.87161,0.6537 q 0.4358,0 0.4358,-0.4358 l 9.48866,1.0697 v 0.4358 q 0.2179,0 0.2179,-0.2179 2.5554,0.49524 3.66472,1.30742 0.41599,-0.21791 0.6537,-0.21791 1.06971,0.65371 1.06971,1.72341 -0.87161,1.72341 -3.88263,1.72341 0,0.43581 -0.4358,0.43581 l -1.0697,-0.21791 -1.08951,0.21791 q -0.416,-0.21791 -0.6339,-0.21791 l -0.2179,0.43581 -1.72341,-0.43581 q -1.42627,0.65371 -1.94131,0.65371 v -0.4358 h -1.08952 q -0.47542,0 -0.8716,-0.21791 l -0.8518,0.43581 -0.43581,-0.2179 q -0.37638,0.2179 -0.8518,0.2179 l -0.4358,-0.2179 q -0.37638,0.2179 -0.87161,0.2179 h -0.43581 l -0.63389,-0.43581 -1.08952,0.21791 -0.4358,-0.21791 q -0.69333,0.43581 -1.2876,0.43581 h -0.21791 q -0.792369,-0.71314 -3.01101,-1.08951 0,-0.6339 -1.307414,-0.6339 0,1.2876 -0.8518,1.2876 v 0.21791 h 0.633898 l -1.287604,5.17022 0.217902,0.43581 q -0.217902,0.6537 -0.435805,0.6537 0,0.21791 0.217903,0.21791 l -0.435805,2.59502 q 0.217902,0.41599 0.217902,0.63389 -0.435804,0.0792 -0.435804,0.43581 0,0.49523 0.217902,0.87161 -0.8518,4.31842 -2.377116,4.31842 0,0.1981 -0.633897,0.1981 h -0.871609 q -1.941312,-1.4857 -1.941312,-2.35731 h 0.217903 l -0.435805,-0.87161 q 0.217902,-1.94131 0.435805,-1.94131 l -0.217903,-0.43581 q 0.515042,-1.7234 0.653707,-1.7234 l -0.217902,-0.43581 q 0.415995,-0.79237 0.415995,-1.72341 v -0.4358 h 0.435805 l -0.217903,-0.43581 q 0.217903,-0.41599 0.217903,-0.63389 -0.217903,-0.416 -0.217903,-0.65371 0.415996,-0.2179 0.653707,-0.2179 l -0.217902,-0.43581 q 0.435805,-4.10052 0.871609,-4.10052 l -0.217902,-0.416 q 0.515042,-1.74322 0.653707,-1.74322 l -0.217903,-0.41599 q 0.8518,-2.02055 2.159214,-9.29056 h 0.415995 l -0.415995,-0.65371 q 0.57447,-0.91123 1.069702,-2.57521 l -0.217902,-0.4358 v -0.65371 q 0.55466,0 1.089511,-2.59502 0.03962,-1.94131 0.633898,-1.94131 l -0.217903,-0.4358 q 0.495233,-2.35731 0.871609,-2.35731 0,-0.2179 -0.217902,-0.2179 l 1.723409,-6.69554 h -0.217902 q 0.217902,-0.65371 0.435804,-0.65371 l -0.217902,-0.43581 q 0,-0.11885 0.871609,-1.72341 l -0.217902,-0.4358 0.653707,-1.50551 h -0.435805 v -0.6537 q 0.138665,0 0.871609,-0.416 v -0.65371 l -0.435804,-0.6537 q 0.633897,-0.55466 0.633897,-1.28761 0.336758,0 1.307414,-1.5055 h 0.2179 q 0,-0.21791 -0.2179,-0.21791 0.31695,-0.8716 0.6339,-0.8716 h 0.4358 q 0.2179,0 0.2179,0.2179 l 0.43581,-0.2179 h 0.4358 q 1.72341,0.79237 1.72341,1.08951 -0.2179,0 -0.2179,0.2179 0.49523,0 0.65371,0.8518 0.39618,0.17828 0.8518,2.81292 h -0.416 l 0.19809,1.0697 q -0.75275,1.30742 -1.0697,1.30742 l 0.2179,0.41599 q -0.6537,0.93104 -2.15921,5.40794 l -0.4358,0.2179 q 0.2179,0.416 0.2179,0.6339 l -2.15921,7.78505 q -0.21791,0 -0.21791,0.21791 v 0.2179 h 0.21791 q 5.44755,-3.78358 7.32944,-5.62584 1.08951,-0.35657 2.37711,-2.15922 0.65371,0 2.59502,-1.94131 0,0.2179 0.2179,0.2179 5.82394,-5.56641 5.82394,-6.04183 0.73294,0 1.08951,-1.08951 0.83199,0 2.37711,-2.35731 0.69333,0 2.35731,-1.74322 0,-0.19809 0.65371,-0.19809 0,-0.2179 -0.21791,-0.2179 0.53485,-1.52532 1.30742,-1.52532 0.41599,0.2179 0.6339,0.2179 0.0792,-0.4358 0.4358,-0.4358 z m -42.609797,2.81292 q 0.415995,0.2179 0.633897,0.2179 0,-0.2179 0.217903,-0.2179 0.217902,0.41599 0.217902,0.65371 h 1.307414 q 0,0.6537 0.415995,0.6537 v 0.1981 q 0,0.2179 -0.217902,0.2179 0.871609,1.30741 0.871609,1.52531 l -0.435805,0.1981 0.435805,0.87161 h -0.217903 l 0.217903,0.4358 v 0.2179 h -0.435805 l 0.435805,0.8518 q -0.534851,0.65371 -0.871609,0.65371 l 0.217902,0.4358 v 2.37712 l 0.217902,1.0697 q -0.415995,0.2179 -0.633897,0.2179 l 0.198093,0.87161 -0.198093,1.06971 0.198093,0.4358 q -0.198093,0.37638 -0.198093,0.87161 0,0.2179 0.198093,0.6339 -0.138665,1.30741 -0.633898,1.30741 v 0.19809 h 0.435805 q -0.217903,1.52532 -0.653707,1.52532 0.217902,0.41599 0.217902,0.6339 l -1.307414,3.46662 0.217903,0.43581 q -0.257521,1.94131 -0.633898,1.94131 0.217902,0.416 0.217902,0.6339 -0.673516,0.83199 -1.96112,4.31842 -0.158475,0 -0.633898,0.65371 v 0.65371 q -0.435804,0 -0.871609,1.2876 -0.8518,1.20837 -2.595018,2.59502 l 0.217902,0.43581 v 0.19809 q -3.407199,2.3375 -3.66472,2.59502 -3.66472,-0.51505 -3.66472,-2.37712 0.217902,0 0.217902,-0.2179 -0.55466,-0.8518 -0.871609,-0.8518 v -0.65371 q 0,-0.79237 -0.8518,-2.15921 0,-0.2179 0.198093,-0.2179 l -0.633897,-1.06971 0.435804,-0.6537 q -0.653706,0 -0.653706,-0.43581 v -0.2179 q 0,-0.19809 0.217902,-0.19809 -0.435805,-0.71314 -0.435805,-1.08951 h 0.217903 q -0.653707,-1.34704 -0.653707,-1.94132 0.217902,0 0.217902,-0.2179 -0.633898,0 -1.505507,-4.53633 -0.297139,-1.72341 -0.653706,-1.72341 H 67.18337 l 0.217903,0.43581 q -0.653707,0.87161 -1.287605,3.88262 h -0.217902 l 0.217902,0.43581 q 0,0.55466 -1.089511,3.01101 l 0.217902,0.4358 q 0,0.57447 -1.505507,3.88263 0.217903,0.41599 0.217903,0.6537 -1.010275,2.71388 -1.941312,3.88262 l 0.217903,0.43581 q 0,0.2179 -0.217903,0.2179 0,0.2179 0.217903,0.2179 0,1.28761 -0.653707,1.28761 l 0.217902,0.4358 q 0,1.20837 -4.100525,1.50551 h -0.217902 q 0,-0.47542 -1.505507,-1.0697 v -0.43581 l -0.435804,0.21791 q 0,-0.65371 -0.217902,-1.50551 h 0.217902 q -0.435805,-0.71314 -0.435805,-1.30742 0.356568,0 0.871609,-1.2876 l -0.217902,-0.4358 v -0.43581 q 0,-0.87161 1.287605,-1.72341 l 1.505506,-4.31842 q 1.525316,-4.15996 1.941311,-6.47765 h 0.217903 l -0.217903,-0.4358 0.87161,-1.94131 h 0.217902 q 0,-0.2179 -0.217902,-0.2179 0.812181,-3.58549 1.287604,-3.66472 l -0.217902,-0.43581 v -0.19809 h 0.435804 v -0.65371 l 1.525316,-5.40794 q -0.435804,0 -0.435804,-0.41599 v -0.2179 q 2.23845,-3.03083 3.446818,-3.03083 2.53559,0 3.446817,2.81292 0.435805,0.0594 0.435805,0.43581 l -0.217902,0.41599 q 0.534851,0 0.653707,1.94132 -0.217903,0 -0.217903,0.2179 h 0.435805 q 0,0.23771 -0.217902,0.6537 l 0.217902,1.28761 H 71.7197 q 0.871609,1.78284 0.871609,3.24872 -0.217903,0 -0.217903,0.21791 0.435805,0 0.633898,2.59501 h -0.415995 v 0.1981 q 0.851799,0 0.851799,1.08951 -0.217902,0 -0.217902,0.2179 0.29714,0 1.525316,4.53633 0.415995,0.83199 0.415995,2.37712 v 0.41599 q 0.653707,0 0.653707,1.52532 -0.217902,0 -0.217902,0.19809 h 0.217902 q 1.505507,0 1.505507,-1.50551 0.812181,0 2.159213,-4.10052 0.970656,-1.52532 1.723409,-5.38813 0.217903,0 0.435805,-1.08951 -0.217902,-0.416 -0.217902,-0.6339 0,-0.65371 0.653706,-0.65371 v -0.2179 h -0.435804 l 0.653707,-4.75423 -0.435805,-0.8518 0.217902,-1.08951 H 81.86206 l 0.435805,-1.28761 q -0.435805,0 -0.435805,-0.4358 0,-0.2179 0.217902,-0.2179 l -0.217902,-0.43581 q 0,-0.2179 0.217902,-0.2179 l -0.217902,-0.41599 0.217902,-0.43581 h -0.653706 v -0.2179 q 0.05943,-1.08951 0.435804,-1.08951 l -0.217902,-0.416 v -0.4358 q 0.356567,0 0.653707,-0.43581 l -0.217903,-0.4358 q 0,-0.91123 2.812921,-1.72341 z m -42.471137,-5.38813 0.217902,0.4358 q -0.217902,0 -0.217902,0.1981 l 1.525316,0.2179 v 0.2179 l -0.217903,0.43581 q 1.188558,0 1.723409,1.0697 0.217903,0 0.217903,0.2179 h -0.435805 v 0.2179 q 0.653707,0 0.653707,0.43581 -0.415995,0.2179 -0.653707,0.2179 0.653707,0.4358 0.871609,3.22892 h -0.217902 l 0.217902,0.4358 -0.217902,0.4358 q 0.217902,0.416 0.217902,0.65371 -0.217902,0 -0.217902,0.2179 0.693325,0 1.069702,3.01102 l -0.435805,0.87161 h 0.217903 q 0,-0.21791 0.217902,-0.21791 l 0.217902,0.43581 q 0,0.2179 -0.217902,0.2179 0.435805,0.93104 0.435805,1.94131 h -0.217903 v 0.1981 h 0.435805 q 0,0.2179 -0.217902,0.2179 0.435804,0.79237 0.435804,1.74322 l -0.217902,0.41599 h 0.435804 v 0.65371 h -0.435804 v 0.4358 q 0.653707,0 0.653707,0.65371 l -0.217903,0.41599 q 0.633898,1.08952 0.633898,1.72341 v 0.21791 l -0.198093,0.4358 q 0.257521,0 1.069702,2.37712 l 0.435805,0.2179 h 1.941311 q 0.495232,0 0.653707,1.0697 -0.217903,0 -0.217903,0.2179 h 0.415996 v 0.43581 q -0.415996,0 -0.415996,0.2179 0.217903,0.41599 0.217903,0.65371 -0.812182,0.87161 -2.159214,1.72341 0,0.71313 -0.217902,1.0697 0.297139,0 0.633897,0.6537 v 1.28761 q 0,0.2179 -0.217902,0.2179 0.435805,0.71314 0.435805,1.30741 h -0.217903 q 0.653707,1.56494 0.653707,1.94132 -0.435804,0.0594 -0.435804,0.4358 0.653707,0 0.653707,0.19809 v 0.65371 h 0.217902 v 0.4358 h -0.435805 v 0.21791 q 0.653707,0 0.653707,0.4358 0,0.2179 -0.217902,0.2179 l 0.653707,2.57521 v 0.2179 q 0,0.21791 -0.217903,0.21791 l 0.217903,0.4358 q -1.525316,1.94131 -2.812921,1.94131 -0.356567,0 -1.723409,-1.72341 -0.653706,0 -1.525316,-3.66472 h 0.217903 q -0.911228,-3.80338 -1.723409,-5.84374 0,-0.2179 0.217902,-0.2179 -0.435804,-0.69333 -0.435804,-1.0697 h -0.435805 q -0.57447,0 -1.287604,0.4358 -0.415996,-0.2179 -0.653707,-0.2179 0,0.4358 -0.633898,0.4358 l -0.435804,-0.2179 q -2.595018,0.416 -2.595018,4.31843 -0.29714,0.6339 -0.435805,0.6339 l 0.217902,0.4358 v 0.4358 q -0.673516,0 -1.069702,4.10053 -1.089511,1.22818 -1.089511,1.94131 -0.336758,0 -0.8518,0.43581 h -1.307414 q -0.217902,0 -0.217902,-0.21791 l -0.415995,0.21791 -0.653707,-0.43581 H 31.84358 q 0,-0.65371 -0.415995,-0.65371 l 0.217903,-0.41599 v -0.2179 q -0.87161,-1.30742 -0.87161,-2.59502 0.05943,-0.43581 0.435805,-0.43581 l -0.217902,-0.4358 v -0.2179 l 0.217902,-0.416 q -0.217902,0 -0.217902,-0.2179 0.297139,0 1.287604,-1.30741 h 0.217902 l -0.217902,-0.416 v -0.4358 q 0,-0.31695 0.653707,-0.65371 l -0.217902,-0.43581 q 0.653706,-0.79237 0.653706,-1.5055 v -0.87161 q -0.871609,0 -1.307413,-0.8518 h -0.415995 v -0.2179 l 0.198092,-0.43581 q -0.673516,0 -1.069702,-1.72341 0.277331,-2.21864 0.653707,-2.81292 l 0.415995,0.2179 h 0.435805 v -0.4358 h 1.723409 l 1.089511,-0.19809 v -1.30742 h 0.435805 v -1.2876 h 0.435805 l -0.217903,-0.43581 q 0.415996,-4.59575 1.069702,-5.82393 0,-0.2179 -0.217902,-0.2179 0.396186,-2.15921 0.653707,-2.15921 0,-0.21791 -0.217902,-0.21791 0.515041,-3.88262 0.871609,-3.88262 l -0.217903,-0.4358 v -0.43581 h 0.415996 v -0.2179 h -0.415996 l 0.633898,-2.57521 q -0.217902,-0.4358 -0.217902,-0.65371 l 0.435804,-0.2179 -0.217902,-1.0697 v -0.2179 h 0.435805 l -0.217903,-0.43581 v -1.30741 q 0.495233,0 0.653707,-0.8518 1.485697,-1.72341 3.228916,-1.72341 z m -0.8518,19.63101 0.217902,0.43581 q 0,0.61409 -0.653707,3.24872 0.217903,0.416 0.217903,0.6339 h -0.435805 q 0.07924,0.47542 0.653707,1.30742 l 1.069702,-0.21791 h 0.653707 q 0,-0.4358 0.217902,-0.4358 -0.138665,-1.72341 -0.435804,-1.72341 l 0.217902,-0.43581 -0.435805,-0.6537 0.435805,-0.6339 q -0.515042,0 -0.871609,-1.94131 0.217902,0 0.217902,-0.2179 h -0.415995 q -0.178284,0 -0.653707,0.63389 z M 21.70122,184.49364 q 0.990465,0.8518 1.505507,0.8518 v 0.6537 l 0.435804,-0.2179 q 0,0.31695 1.069702,0.65371 l 1.089512,-0.2179 h 0.633897 q 1.743219,0 2.812921,0.8518 h 0.217902 v 1.52531 q -1.782837,1.34703 -4.536329,2.37712 0,0.2179 -0.217903,0.63389 l 0.217903,1.30742 q 0,0.2179 -0.217903,0.2179 l 0.217903,0.416 v 3.03082 l 0.435804,0.65371 q 0,0.19809 -0.217902,0.19809 l 0.217902,0.4358 q -0.435804,1.60456 -0.435804,2.15922 h 0.217902 q -0.217902,0.41599 -0.217902,0.6537 0.217902,0.416 0.217902,0.65371 -0.217902,0 -0.217902,0.19809 0.217902,0 0.217902,0.21791 h -0.435805 v 0.2179 h 0.435805 v 0.4358 q 0,0.2179 -0.217902,0.2179 l 0.217902,0.43581 q 0,0.2179 -0.217902,0.2179 0,0.2179 0.217902,0.2179 l -0.217902,1.06971 0.217902,0.4358 q -0.475423,2.15921 -0.653707,2.15921 l 0.217902,0.43581 v 0.41599 q 0,2.15922 -0.435804,2.15922 l 0.217902,0.4358 q -0.732944,3.36758 -1.069702,4.10053 l 0.217902,0.4358 v 0.2179 h -0.435804 l 0.217902,0.43581 v 0.2179 q -0.792372,1.72341 -1.089511,1.72341 l 0.217902,0.4358 q -0.713135,1.06971 -0.8518,1.06971 l 0.198093,0.4358 v 0.2179 q -0.772563,0 -1.069702,1.0697 -1.723409,0.75276 -1.723409,1.50551 -3.050632,1.30742 -4.100525,1.30742 0,0.47542 -2.595018,0.6537 -1.188558,-0.2179 -1.723409,-0.2179 l -0.8716088,0.416 q -5.8239337,-0.99047 -5.8239337,-2.79312 l -0.8716091,-1.52531 q 0,-0.19809 0.2179023,-0.19809 -0.4159953,-0.71314 -0.4159953,-1.08952 h 0.198093 q 0,-0.2179 -0.198093,-0.2179 0,-0.81218 1.0697021,-2.59502 0,-0.67351 1.5055067,-2.57521 0,-1.7234 1.3074136,-1.7234 0,0.37637 1.5055067,1.94131 -0.2179023,0 -0.2179023,0.19809 0.4358046,0.0792 0.4358046,0.4358 v 0.21791 l -0.2179023,0.4358 q 0.4358046,0 0.4358046,0.2179 -0.8716092,1.62437 -0.8716092,1.94131 0.2971395,0 1.3074137,0.65371 6.1606914,0 6.4578314,-1.52531 l 1.307414,-0.416 -0.217903,-0.4358 q 0.911228,-0.75276 1.287605,-1.94132 h 0.217902 l -0.217902,-0.4358 q 0.118855,-0.87161 0.653706,-0.87161 l -0.217902,-0.41599 V 211.0381 H 18.8883 l -0.217903,-0.43581 v -0.2179 l 0.435805,-1.50551 v -0.6537 h 0.217902 q 0,-0.21791 -0.217902,-0.21791 0.217902,-1.94131 0.435805,-1.94131 l -0.217903,-0.41599 q 0,-1.52532 0.633898,-1.52532 v -0.2179 h -0.415995 v -1.0697 q 0,-0.49524 -0.217903,-0.87161 l 0.217903,-0.43581 -0.217903,-0.8518 v -1.2876 h -0.217902 v -0.43581 h 0.435805 v -1.7234 q 0,-0.21791 0.217902,-0.21791 -0.653707,-1.08951 -0.653707,-1.74321 h 0.217902 q -0.594279,-1.94132 -1.089511,-1.94132 v -0.19809 l 0.435804,-0.65371 q -0.871609,0 -0.871609,-0.6537 l -1.069702,0.2179 H 15.22358 q -0.217903,0 -0.217903,-0.2179 l -0.435804,0.2179 h -0.435805 q -0.217902,0 -0.217902,-0.2179 -0.8518,0.4358 -1.505507,0.4358 l -0.435804,-0.2179 -0.435805,0.2179 q -0.415995,-0.2179 -0.633897,-0.2179 -0.713135,0.4358 -1.3074141,0.4358 -0.4159953,0 -0.4159953,-0.2179 -0.6140882,0 -3.6845294,0.65371 -2.2186414,0 -3.4468179,-3.90243 0.2179023,-0.37638 0.2179023,-0.8518 l -0.2179023,-0.43581 q 0.5744696,-0.8518 1.0697021,-0.8518 0,-0.6537 0.4358045,-0.6537 l -0.2179022,-0.43581 q 0.4358045,0 0.4358045,-0.4358 h 0.6537069 v 0.6537 q 0.4159952,-0.2179 0.6537068,-0.2179 0.7725626,0 1.9413112,0.2179 1.525316,-0.2179 2.5752088,-0.2179 0.079237,0.43581 0.4358041,0.43581 h 1.941312 q 0.495232,0 0.871609,0.2179 1.327223,-0.43581 1.723409,-0.43581 0.415995,0.21791 0.653707,0.21791 l 0.415995,-0.21791 1.307414,0.21791 h 0.653706 q 0.732944,-0.83199 3.664721,-1.72341 z" />
  </g>
</svg>
