<?xml version="1.0" standalone="no"?>
<!DOCTYPE svg PUBLIC "-//W3C//DTD SVG 20010904//EN"
 "http://www.w3.org/TR/2001/REC-SVG-20010904/DTD/svg10.dtd">
<svg version="1.0" xmlns="http://www.w3.org/2000/svg"
 width="260.000000pt" height="260.000000pt" viewBox="0 0 260.000000 260.000000"
 preserveAspectRatio="xMidYMid meet">
<metadata>
Created by potrace 1.11, written by Peter Selinger 2001-2013
</metadata>
<g transform="translate(0.000000,260.000000) scale(0.100000,-0.100000)"
fill="#000000" stroke="none">
<path d="M557 1623 c-8 -10 -18 -43 -21 -73 -3 -30 -8 -65 -10 -76 -3 -12 -7
-39 -10 -60 -18 -114 -24 -134 -45 -134 -9 0 -22 -5 -29 -12 -13 -13 -16 -48
-4 -48 4 0 13 -9 19 -19 10 -16 9 -27 -4 -58 -22 -50 -23 -61 -13 -89 7 -18
17 -24 38 -24 36 0 49 24 68 129 4 20 25 38 55 45 24 5 27 2 38 -37 6 -23 14
-53 16 -66 5 -26 32 -71 43 -71 29 1 44 39 31 82 -19 69 -21 117 -5 134 23 22
20 41 -8 48 -23 6 -31 22 -42 84 -2 12 -6 34 -9 50 -3 15 -8 45 -11 67 -3 22
-7 49 -8 60 -2 11 -4 28 -5 37 0 10 -14 24 -31 33 -36 19 -34 19 -53 -2z m50
-297 c4 -28 1 -36 -11 -36 -17 0 -20 19 -10 58 8 29 15 22 21 -22z"/>
<path d="M1409 1571 c-7 -14 -14 -33 -15 -41 -2 -8 -24 -96 -49 -195 -25 -99
-47 -189 -50 -200 -2 -11 -13 -65 -25 -120 -38 -180 -39 -197 -19 -221 31 -38
64 2 73 91 10 94 21 130 37 126 8 -2 52 -6 99 -10 103 -7 209 3 229 24 24 24
-36 45 -173 61 -33 3 -67 8 -75 9 -9 2 -22 4 -28 4 -50 3 41 112 179 215 42
31 101 78 130 104 29 26 59 52 66 57 55 41 67 78 36 109 -28 29 -52 17 -141
-72 -48 -48 -108 -103 -133 -122 -25 -19 -47 -37 -50 -40 -3 -3 -25 -21 -50
-40 -30 -24 -42 -29 -37 -17 4 10 13 44 22 76 8 31 24 81 36 109 18 44 20 56
9 81 -16 40 -54 47 -71 12z"/>
<path d="M261 1566 c-21 -12 -166 -13 -197 -2 -6 3 -17 -7 -25 -21 -20 -37 6
-79 47 -77 112 5 141 6 156 5 29 -2 40 -96 25 -223 -12 -102 -40 -135 -112
-134 -36 1 -40 3 -37 24 3 23 -13 52 -28 52 -4 0 -17 -20 -28 -44 -38 -81 -5
-126 94 -126 63 0 133 34 153 75 13 27 38 126 39 155 0 8 1 65 2 127 1 99 3
113 19 118 25 8 55 42 43 49 -6 3 -27 8 -48 11 -21 2 -42 9 -48 15 -13 13 -26
12 -55 -4z"/>
<path d="M2084 1560 c-12 -5 -25 -14 -29 -20 -6 -10 -17 -312 -15 -429 1 -63
13 -91 39 -91 25 0 30 23 36 166 3 66 10 155 15 199 14 111 13 140 -7 163 -14
15 -23 18 -39 12z"/>
<path d="M1163 1552 c-14 -9 -15 -18 -13 -127 1 -98 -43 -241 -77 -252 -11 -4
-38 93 -58 208 -15 89 -27 114 -55 122 -25 6 -60 -24 -60 -51 0 -10 -9 -45
-19 -78 -11 -32 -32 -99 -47 -149 -15 -49 -34 -98 -42 -108 -8 -9 -12 -20 -9
-24 4 -3 2 -12 -4 -20 -9 -10 -7 -19 5 -38 27 -42 81 -29 89 21 1 10 5 24 8
29 7 10 29 77 33 98 12 57 30 107 36 100 4 -4 15 -42 25 -83 10 -41 23 -86 28
-100 6 -14 11 -29 11 -33 1 -11 28 -27 45 -27 19 0 86 72 109 117 27 53 59
187 61 253 1 30 4 67 7 82 10 51 -32 86 -73 60z"/>
<path d="M2350 1528 c-29 -24 -93 -123 -122 -185 -60 -133 2 -220 135 -189
181 44 240 131 173 259 -17 33 -47 73 -67 89 -40 33 -96 45 -119 26z m102
-125 c8 -10 20 -32 25 -49 14 -40 -5 -64 -71 -93 -58 -25 -104 -27 -113 -5 -8
22 27 93 66 131 38 37 70 42 93 16z"/>
<path d="M1832 1175 c-31 -14 -33 -17 -28 -56 3 -22 10 -47 16 -54 14 -17 65
-12 82 7 23 24 28 78 7 78 -6 0 -18 9 -27 20 -16 18 -20 18 -50 5z"/>
</g>
</svg>
